<?xml version="1.0" encoding="UTF-8" standalone="no"?>
<!DOCTYPE svg PUBLIC "-//W3C//DTD SVG 1.1//EN"
 "http://www.w3.org/Graphics/SVG/1.1/DTD/svg11.dtd">
<!-- Generated by graphviz version 2.40.1 (20161225.0304)
 -->
<!-- Title: G Pages: 1 -->
<svg width="153pt" height="260pt"
 viewBox="0.00 0.00 152.59 260.00" xmlns="http://www.w3.org/2000/svg" xmlns:xlink="http://www.w3.org/1999/xlink">
<g id="graph0" class="graph" transform="scale(1 1) rotate(0) translate(4 256)">
<title>G</title>
<polygon fill="#ffffff" stroke="transparent" points="-4,4 -4,-256 148.594,-256 148.594,4 -4,4"/>
<!-- hungry -->
<g id="node1" class="node">
<title>hungry</title>
<ellipse fill="none" stroke="#000000" cx="35.7468" cy="-234" rx="35.9954" ry="18"/>
<text text-anchor="middle" x="35.7468" y="-230.3" font-family="Times,serif" font-size="14.00" fill="#000000">hungry</text>
</g>
<!-- eat -->
<g id="node2" class="node">
<title>eat</title>
<ellipse fill="none" stroke="#000000" cx="35.7468" cy="-162" rx="27" ry="18"/>
<text text-anchor="middle" x="35.7468" y="-158.3" font-family="Times,serif" font-size="14.00" fill="#000000">eat</text>
</g>
<!-- hungry&#45;&gt;eat -->
<g id="edge1" class="edge">
<title>hungry&#45;&gt;eat</title>
<path fill="none" stroke="#000000" d="M35.7468,-215.8314C35.7468,-208.131 35.7468,-198.9743 35.7468,-190.4166"/>
<polygon fill="#000000" stroke="#000000" points="39.2469,-190.4132 35.7468,-180.4133 32.2469,-190.4133 39.2469,-190.4132"/>
</g>
<!-- full -->
<g id="node3" class="node">
<title>full</title>
<ellipse fill="none" stroke="#000000" cx="37.7468" cy="-90" rx="27" ry="18"/>
<text text-anchor="middle" x="37.7468" y="-86.3" font-family="Times,serif" font-size="14.00" fill="#000000">full</text>
</g>
<!-- eat&#45;&gt;full -->
<g id="edge2" class="edge">
<title>eat&#45;&gt;full</title>
<path fill="none" stroke="#000000" d="M36.2515,-143.8314C36.4654,-136.131 36.7198,-126.9743 36.9575,-118.4166"/>
<polygon fill="#000000" stroke="#000000" points="40.4562,-118.5066 37.2353,-108.4133 33.4589,-118.3122 40.4562,-118.5066"/>
</g>
<!-- sleepy -->
<g id="node4" class="node">
<title>sleepy</title>
<ellipse fill="none" stroke="#000000" cx="73.7468" cy="-18" rx="33.2948" ry="18"/>
<text text-anchor="middle" x="73.7468" y="-14.3" font-family="Times,serif" font-size="14.00" fill="#000000">sleepy</text>
</g>
<!-- full&#45;&gt;sleepy -->
<g id="edge3" class="edge">
<title>full&#45;&gt;sleepy</title>
<path fill="none" stroke="#000000" d="M46.4614,-72.5708C50.6753,-64.1431 55.8241,-53.8455 60.5091,-44.4755"/>
<polygon fill="#000000" stroke="#000000" points="63.646,-46.0278 64.9877,-35.5182 57.385,-42.8973 63.646,-46.0278"/>
</g>
<!-- tired -->
<g id="node5" class="node">
<title>tired</title>
<ellipse fill="none" stroke="#000000" cx="110.7468" cy="-90" rx="27" ry="18"/>
<text text-anchor="middle" x="110.7468" y="-86.3" font-family="Times,serif" font-size="14.00" fill="#000000">tired</text>
</g>
<!-- tired&#45;&gt;sleepy -->
<g id="edge4" class="edge">
<title>tired&#45;&gt;sleepy</title>
<path fill="none" stroke="#000000" d="M101.9783,-72.937C97.6189,-64.4537 92.2515,-54.0092 87.3716,-44.513"/>
<polygon fill="#000000" stroke="#000000" points="90.3932,-42.7352 82.7094,-35.4407 84.1671,-45.9348 90.3932,-42.7352"/>
</g>
<!-- riding -->
<g id="node6" class="node">
<title>riding</title>
<ellipse fill="none" stroke="#000000" cx="112.7468" cy="-162" rx="31.6951" ry="18"/>
<text text-anchor="middle" x="112.7468" y="-158.3" font-family="Times,serif" font-size="14.00" fill="#000000">riding</text>
</g>
<!-- riding&#45;&gt;tired -->
<g id="edge5" class="edge">
<title>riding&#45;&gt;tired</title>
<path fill="none" stroke="#000000" d="M112.2421,-143.8314C112.0282,-136.131 111.7739,-126.9743 111.5362,-118.4166"/>
<polygon fill="#000000" stroke="#000000" points="115.0347,-118.3122 111.2583,-108.4133 108.0374,-118.5066 115.0347,-118.3122"/>
</g>
</g>
</svg>
