<svg xmlns="http://www.w3.org/2000/svg" version="1.1"
	xmlns:xlink="http://www.w3.org/1999/xlink"
	color="black"
	width="701.60px" height="82.00px">
<style type="text/css">
.fill {fill: currentColor}
.stroke {stroke: currentColor; fill: none}
text{white-space: pre}
</style>
<title> (1) tune 0</title>
<!-- Creator: abcm2ps-8.14.5 -->
<!-- CreationDate: Oct 12, 2019 08:16 -->
<!-- CommandLine: -g -q -O - - -->
<g stroke-width="0.70">
<defs>
<g id="rdots" class="fill">
	<circle cx="0" cy="-9" r="1.2"/>
	<circle cx="0" cy="-15" r="1.2"/>
</g>
</defs>
<use x="49.00" y="59.00" xlink:href="#rdots"/>
<path class="stroke" stroke-width="1"
	d="M45.00 59.00v-24.00"/>
<path class="stroke" stroke-width="3"
	d="M40.50 59.00v-24.00"/>
<path class="stroke" stroke-width="1"
	d="M209.70 59.00v-24.00"/>
<path class="stroke" stroke-width="1"
	d="M369.40 59.00v-24.00"/>
<path class="stroke" stroke-width="1"
	d="M529.10 59.00v-24.00"/>
<path class="stroke" stroke-width="3"
	d="M690.10 59.00v-24.00"/>
<path class="stroke" stroke-width="1"
	d="M685.60 59.00v-24.00"/>
<use x="681.60" y="59.00" xlink:href="#rdots"/>
<path d="m10.00 59.00
	h681.60
	M10.00 53.00
	h681.60
	M10.00 47.00
	h681.60
	M10.00 41.00
	h681.60
	M10.00 35.00
	h681.60
	" class="stroke"/>
<defs>
<path id="utclef" class="fill" d="m-50 -90
	c-72 -41 -72 -158 52 -188
	150 -10 220 188 90 256
	-114 52 -275 0 -293 -136
	-15 -181 93 -229 220 -334
	88 -87 79 -133 62 -210
	-51 33 -94 105 -89 186
	17 267 36 374 49 574
	6 96 -19 134 -77 135
	-80 1 -126 -93 -61 -133
	85 -41 133 101 31 105
	23 17 92 37 90 -92
	-10 -223 -39 -342 -50 -617
	0 -90 0 -162 96 -232
	56 72 63 230 22 289
	-74 106 -257 168 -255 316
	9 153 148 185 252 133
	86 -65 29 -192 -80 -176
	-71 12 -105 67 -59 124"/>
<use id="tclef" transform="translate(0,6) scale(0.045)"
	xlink:href="#utclef"/>
</defs>
<use x="22.00" y="53.00" xlink:href="#tclef"/>
<path class="fill"
	d="M59.90 56.60l50.20 4.90v-3.20l-50.20 -4.90"/>
<defs>
<ellipse id="hd" rx="4.1" ry="2.9"
	transform="rotate(-20)" class="fill"/>
</defs>
<use x="63.80" y="35.00" xlink:href="#hd"/>
<path d="M60.30 35.00v20.60" class="stroke"/>
<use x="88.60" y="38.00" xlink:href="#hd"/>
<path d="M85.10 38.00v20.00" class="stroke"/>
<use x="113.30" y="41.00" xlink:href="#hd"/>
<path d="M109.80 41.00v19.40" class="stroke"/>
<path class="fill"
	d="M137.00 64.40l50.20 -4.90v-3.20l-50.20 4.90"/>
<use x="140.80" y="44.00" xlink:href="#hd"/>
<path d="M137.30 44.00v19.40" class="stroke"/>
<use x="165.60" y="41.00" xlink:href="#hd"/>
<path d="M162.10 41.00v20.00" class="stroke"/>
<use x="190.40" y="38.00" xlink:href="#hd"/>
<path d="M186.90 38.00v20.60" class="stroke"/>
<path class="fill"
	d="M219.60 56.60l50.20 4.90v-3.20l-50.20 -4.90"/>
<use x="223.50" y="35.00" xlink:href="#hd"/>
<path d="M220.00 35.00v20.60" class="stroke"/>
<use x="248.20" y="38.00" xlink:href="#hd"/>
<path d="M244.70 38.00v20.00" class="stroke"/>
<use x="273.00" y="41.00" xlink:href="#hd"/>
<path d="M269.50 41.00v19.40" class="stroke"/>
<path class="fill"
	d="M296.70 64.40l50.20 -4.90v-3.20l-50.20 4.90"/>
<use x="300.50" y="44.00" xlink:href="#hd"/>
<path d="M297.00 44.00v19.40" class="stroke"/>
<use x="325.30" y="41.00" xlink:href="#hd"/>
<path d="M321.80 41.00v20.00" class="stroke"/>
<use x="350.10" y="38.00" xlink:href="#hd"/>
<path d="M346.60 38.00v20.60" class="stroke"/>
<path class="fill"
	d="M379.30 56.60l50.30 4.90v-3.20l-50.30 -4.90"/>
<use x="383.10" y="35.00" xlink:href="#hd"/>
<path d="M379.60 35.00v20.60" class="stroke"/>
<use x="407.90" y="38.00" xlink:href="#hd"/>
<defs>
<path id="uflat" class="fill" d="
	m100 -746
	h32
	v734
	l-32 4
	m32 -332
	c46 -72 152 -90 208 -20
	100 110 -120 326 -208 348
	m0 -28
	c54 0 200 -206 130 -290
	-50 -60 -130 -4 -130 34"/>
<use id="ft0" transform="translate(-3.5,3.5) scale(0.018)"
	xlink:href="#uflat"/>
</defs>
<use x="398.90" y="38.00" xlink:href="#ft0"/>
<path d="M404.40 38.00v20.00" class="stroke"/>
<use x="432.70" y="41.00" xlink:href="#hd"/>
<path d="M429.20 41.00v19.40" class="stroke"/>
<path class="fill"
	d="M456.40 64.40l50.30 -4.90v-3.20l-50.30 4.90"/>
<use x="460.20" y="44.00" xlink:href="#hd"/>
<path d="M456.70 44.00v19.40" class="stroke"/>
<use x="485.00" y="41.00" xlink:href="#hd"/>
<path d="M481.50 41.00v20.00" class="stroke"/>
<use x="509.80" y="38.00" xlink:href="#hd"/>
<use x="500.80" y="38.00" xlink:href="#ft0"/>
<path d="M506.30 38.00v20.60" class="stroke"/>
<path class="fill"
	d="M539.00 56.60l50.30 4.90v-3.20l-50.30 -4.90"/>
<use x="542.90" y="35.00" xlink:href="#hd"/>
<path d="M539.40 35.00v20.60" class="stroke"/>
<use x="567.70" y="38.00" xlink:href="#hd"/>
<use x="558.70" y="38.00" xlink:href="#ft0"/>
<path d="M564.20 38.00v20.00" class="stroke"/>
<use x="592.40" y="41.00" xlink:href="#hd"/>
<path d="M588.90 41.00v19.40" class="stroke"/>
<path class="fill"
	d="M616.10 64.40l50.30 -4.90v-3.20l-50.30 4.90"/>
<use x="620.00" y="44.00" xlink:href="#hd"/>
<path d="M616.50 44.00v19.40" class="stroke"/>
<use x="644.70" y="41.00" xlink:href="#hd"/>
<path d="M641.20 41.00v20.00" class="stroke"/>
<use x="669.50" y="38.00" xlink:href="#hd"/>
<defs>
<path id="unat" class="fill" d="
	m96 -750
	h-32
	v716
	l32 -8
	182 -54
	v282
	h32
	v-706
	l-34 10
	-180 50
	v-290
	m0 592
	v-190
	l182 -52
	v188"/>
<use id="nt0" transform="translate(-3,5) scale(0.018)"
	xlink:href="#unat"/>
</defs>
<use x="660.50" y="38.00" xlink:href="#nt0"/>
<path d="M666.00 38.00v20.60" class="stroke"/>
</g>
</svg>
